<?xml version="1.0" encoding="UTF-8" standalone="no"?>
<svg
   xmlns:dc="http://purl.org/dc/elements/1.1/"
   xmlns:cc="http://creativecommons.org/ns#"
   xmlns:rdf="http://www.w3.org/1999/02/22-rdf-syntax-ns#"
   xmlns:svg="http://www.w3.org/2000/svg"
   xmlns="http://www.w3.org/2000/svg"
   viewBox="0 0 500 150"
   height="150"
   width="500"
   xml:space="preserve"
   version="1.1"
   id="svg2"><metadata
     id="metadata8"><rdf:RDF><cc:Work
         rdf:about=""><dc:format>image/svg+xml</dc:format><dc:type
           rdf:resource="http://purl.org/dc/dcmitype/StillImage" /></cc:Work></rdf:RDF></metadata><defs
     id="defs6" /><g
     transform="matrix(1.25,0,0,-1.25,0,150)"
     id="g10"><g
       id="g12"><g
         transform="matrix(1,0,0,-1,0,120)"
         id="g14"><path
           id="path16"
           style="fill:none;stroke:#000000;stroke-width:0.351906;stroke-linecap:butt;stroke-linejoin:miter;stroke-miterlimit:10;stroke-dasharray:none;stroke-opacity:1"
           d="m 246.922,13.078 93.84,23.461" /></g><g
         transform="matrix(1,0,0,-1,0,120)"
         id="g18"><path
           id="path20"
           style="fill:none;stroke:#000000;stroke-width:0.351906;stroke-linecap:butt;stroke-linejoin:miter;stroke-miterlimit:10;stroke-dasharray:none;stroke-opacity:1"
           d="m 246.922,13.078 -93.84,23.461" /></g><g
         transform="matrix(1,0,0,-1,0,120)"
         id="g22"><path
           id="path24"
           style="fill:none;stroke:#000000;stroke-width:0.351906;stroke-linecap:butt;stroke-linejoin:miter;stroke-miterlimit:10;stroke-dasharray:none;stroke-opacity:1"
           d="M 340.762,36.539 364.223,60" /></g><g
         transform="matrix(1,0,0,-1,0,120)"
         id="g26"><path
           id="path28"
           style="fill:none;stroke:#000000;stroke-width:0.351906;stroke-linecap:butt;stroke-linejoin:miter;stroke-miterlimit:10;stroke-dasharray:none;stroke-opacity:1"
           d="M 340.762,36.539 293.84,60" /></g><g
         transform="matrix(1,0,0,-1,0,120)"
         id="g30"><path
           id="path32"
           style="fill:#ffffff;fill-opacity:1;fill-rule:nonzero;stroke:#000000;stroke-width:0.351906;stroke-linecap:butt;stroke-linejoin:miter;stroke-miterlimit:10;stroke-dasharray:none;stroke-opacity:1"
           d="m 381.816,64.105 0,-8.21 c 0,-1.946 -1.574,-3.52 -3.519,-3.52 l -28.152,0 c -1.946,0 -3.52,1.574 -3.52,3.52 l 0,8.21 c 0,1.946 1.574,3.52 3.52,3.52 l 28.152,0 c 1.945,0 3.519,-1.574 3.519,-3.52 z" /></g><text
         id="text34"
         style="font-variant:normal;font-weight:normal;font-size:11.73020458px;font-family:Arial;-inkscape-font-specification:ArialMT;writing-mode:lr-tb;fill:#000000;fill-opacity:1;fill-rule:nonzero;stroke:none"
         transform="matrix(1,0,0,-1,353.07838,55.933376)"><tspan
           id="tspan36"
           y="0"
           x="0 3.2492669 5.8533721 12.375366 15.624633">fib 1</tspan></text>
<g
         transform="matrix(1,0,0,-1,0,120)"
         id="g38"><path
           id="path40"
           style="fill:none;stroke:#000000;stroke-width:0.351906;stroke-linecap:butt;stroke-linejoin:miter;stroke-miterlimit:10;stroke-dasharray:none;stroke-opacity:1"
           d="m 293.84,60 23.461,23.461" /></g><g
         transform="matrix(1,0,0,-1,0,120)"
         id="g42"><path
           id="path44"
           style="fill:none;stroke:#000000;stroke-width:0.351906;stroke-linecap:butt;stroke-linejoin:miter;stroke-miterlimit:10;stroke-dasharray:none;stroke-opacity:1"
           d="M 293.84,60 270.379,83.461" /></g><g
         transform="matrix(1,0,0,-1,0,120)"
         id="g46"><path
           id="path48"
           style="fill:#ffffff;fill-opacity:1;fill-rule:nonzero;stroke:#000000;stroke-width:0.351906;stroke-linecap:butt;stroke-linejoin:miter;stroke-miterlimit:10;stroke-dasharray:none;stroke-opacity:1"
           d="m 334.898,87.566 0,-8.211 c 0,-1.945 -1.574,-3.519 -3.519,-3.519 l -28.152,0 c -1.946,0 -3.52,1.574 -3.52,3.519 l 0,8.211 c 0,1.946 1.574,3.52 3.52,3.52 l 28.152,0 c 1.945,0 3.519,-1.574 3.519,-3.52 z" /></g><text
         id="text50"
         style="font-variant:normal;font-weight:normal;font-size:11.73020458px;font-family:Arial;-inkscape-font-specification:ArialMT;writing-mode:lr-tb;fill:#000000;fill-opacity:1;fill-rule:nonzero;stroke:none"
         transform="matrix(1,0,0,-1,306.15756,32.472966)"><tspan
           id="tspan52"
           y="0"
           x="0 3.2492669 5.8533721 12.375366 15.624633">fib 0</tspan></text>
<g
         transform="matrix(1,0,0,-1,0,120)"
         id="g54"><path
           id="path56"
           style="fill:#ffffff;fill-opacity:1;fill-rule:nonzero;stroke:#000000;stroke-width:0.351906;stroke-linecap:butt;stroke-linejoin:miter;stroke-miterlimit:10;stroke-dasharray:none;stroke-opacity:1"
           d="m 287.977,87.566 0,-8.211 c 0,-1.945 -1.575,-3.519 -3.52,-3.519 l -28.152,0 c -1.946,0 -3.52,1.574 -3.52,3.519 l 0,8.211 c 0,1.946 1.574,3.52 3.52,3.52 l 28.152,0 c 1.945,0 3.52,-1.574 3.52,-3.52 z" /></g><text
         id="text58"
         style="font-variant:normal;font-weight:normal;font-size:11.73020458px;font-family:Arial;-inkscape-font-specification:ArialMT;writing-mode:lr-tb;fill:#000000;fill-opacity:1;fill-rule:nonzero;stroke:none"
         transform="matrix(1,0,0,-1,259.23674,32.472966)"><tspan
           id="tspan60"
           y="0"
           x="0 3.2492669 5.8533721 12.375366 15.624633">fib 1</tspan></text>
<g
         transform="matrix(1,0,0,-1,0,120)"
         id="g62"><path
           id="path64"
           style="fill:#ffffff;fill-opacity:1;fill-rule:nonzero;stroke:#000000;stroke-width:0.351906;stroke-linecap:butt;stroke-linejoin:miter;stroke-miterlimit:10;stroke-dasharray:none;stroke-opacity:1"
           d="m 311.438,64.105 0,-8.21 c 0,-1.946 -1.575,-3.52 -3.52,-3.52 l -28.152,0 c -1.946,0 -3.52,1.574 -3.52,3.52 l 0,8.21 c 0,1.946 1.574,3.52 3.52,3.52 l 28.152,0 c 1.945,0 3.52,-1.574 3.52,-3.52 z" /></g><text
         id="text66"
         style="font-variant:normal;font-weight:normal;font-size:11.73020458px;font-family:Arial;-inkscape-font-specification:ArialMT;writing-mode:lr-tb;fill:#000000;fill-opacity:1;fill-rule:nonzero;stroke:none"
         transform="matrix(1,0,0,-1,282.69715,55.933376)"><tspan
           id="tspan68"
           y="0"
           x="0 3.2492669 5.8533721 12.375366 15.624633">fib 2</tspan></text>
<g
         transform="matrix(1,0,0,-1,0,120)"
         id="g70"><path
           id="path72"
           style="fill:#ffffff;fill-opacity:1;fill-rule:nonzero;stroke:#000000;stroke-width:0.351906;stroke-linecap:butt;stroke-linejoin:miter;stroke-miterlimit:10;stroke-dasharray:none;stroke-opacity:1"
           d="m 358.359,40.645 0,-8.211 c 0,-1.946 -1.574,-3.52 -3.519,-3.52 l -28.152,0 c -1.946,0 -3.52,1.574 -3.52,3.52 l 0,8.211 c 0,1.945 1.574,3.519 3.52,3.519 l 28.152,0 c 1.945,0 3.519,-1.574 3.519,-3.519 z" /></g><text
         id="text74"
         style="font-variant:normal;font-weight:normal;font-size:11.73020458px;font-family:Arial;-inkscape-font-specification:ArialMT;writing-mode:lr-tb;fill:#000000;fill-opacity:1;fill-rule:nonzero;stroke:none"
         transform="matrix(1,0,0,-1,329.61797,79.393787)"><tspan
           id="tspan76"
           y="0"
           x="0 3.2492669 5.8533721 12.375366 15.624633">fib 3</tspan></text>
<g
         transform="matrix(1,0,0,-1,0,120)"
         id="g78"><path
           id="path80"
           style="fill:none;stroke:#000000;stroke-width:0.351906;stroke-linecap:butt;stroke-linejoin:miter;stroke-miterlimit:10;stroke-dasharray:none;stroke-opacity:1"
           d="M 153.078,36.539 200,60" /></g><g
         transform="matrix(1,0,0,-1,0,120)"
         id="g82"><path
           id="path84"
           style="fill:none;stroke:#000000;stroke-width:0.351906;stroke-linecap:butt;stroke-linejoin:miter;stroke-miterlimit:10;stroke-dasharray:none;stroke-opacity:1"
           d="M 153.078,36.539 106.156,60" /></g><g
         transform="matrix(1,0,0,-1,0,120)"
         id="g86"><path
           id="path88"
           style="fill:none;stroke:#000000;stroke-width:0.351906;stroke-linecap:butt;stroke-linejoin:miter;stroke-miterlimit:10;stroke-dasharray:none;stroke-opacity:1"
           d="m 200,60 23.461,23.461" /></g><g
         transform="matrix(1,0,0,-1,0,120)"
         id="g90"><path
           id="path92"
           style="fill:none;stroke:#000000;stroke-width:0.351906;stroke-linecap:butt;stroke-linejoin:miter;stroke-miterlimit:10;stroke-dasharray:none;stroke-opacity:1"
           d="M 200,60 176.539,83.461" /></g><g
         transform="matrix(1,0,0,-1,0,120)"
         id="g94"><path
           id="path96"
           style="fill:#ffffff;fill-opacity:1;fill-rule:nonzero;stroke:#000000;stroke-width:0.351906;stroke-linecap:butt;stroke-linejoin:miter;stroke-miterlimit:10;stroke-dasharray:none;stroke-opacity:1"
           d="m 241.055,87.566 0,-8.211 c 0,-1.945 -1.575,-3.519 -3.52,-3.519 l -28.152,0 c -1.945,0 -3.52,1.574 -3.52,3.519 l 0,8.211 c 0,1.946 1.575,3.52 3.52,3.52 l 28.152,0 c 1.945,0 3.52,-1.574 3.52,-3.52 z" /></g><text
         id="text98"
         style="font-variant:normal;font-weight:normal;font-size:11.73020458px;font-family:Arial;-inkscape-font-specification:ArialMT;writing-mode:lr-tb;fill:#000000;fill-opacity:1;fill-rule:nonzero;stroke:none"
         transform="matrix(1,0,0,-1,212.31592,32.472966)"><tspan
           id="tspan100"
           y="0"
           x="0 3.2492669 5.8533721 12.375366 15.624633">fib 0</tspan></text>
<g
         transform="matrix(1,0,0,-1,0,120)"
         id="g102"><path
           id="path104"
           style="fill:#ffffff;fill-opacity:1;fill-rule:nonzero;stroke:#000000;stroke-width:0.351906;stroke-linecap:butt;stroke-linejoin:miter;stroke-miterlimit:10;stroke-dasharray:none;stroke-opacity:1"
           d="m 194.137,87.566 0,-8.211 c 0,-1.945 -1.574,-3.519 -3.52,-3.519 l -28.152,0 c -1.945,0 -3.52,1.574 -3.52,3.519 l 0,8.211 c 0,1.946 1.575,3.52 3.52,3.52 l 28.152,0 c 1.946,0 3.52,-1.574 3.52,-3.52 z" /></g><text
         id="text106"
         style="font-variant:normal;font-weight:normal;font-size:11.73020458px;font-family:Arial;-inkscape-font-specification:ArialMT;writing-mode:lr-tb;fill:#000000;fill-opacity:1;fill-rule:nonzero;stroke:none"
         transform="matrix(1,0,0,-1,165.3951,32.472966)"><tspan
           id="tspan108"
           y="0"
           x="0 3.2492669 5.8533721 12.375366 15.624633">fib 1</tspan></text>
<g
         transform="matrix(1,0,0,-1,0,120)"
         id="g110"><path
           id="path112"
           style="fill:#ffffff;fill-opacity:1;fill-rule:nonzero;stroke:#000000;stroke-width:0.351906;stroke-linecap:butt;stroke-linejoin:miter;stroke-miterlimit:10;stroke-dasharray:none;stroke-opacity:1"
           d="m 217.594,64.105 0,-8.21 c 0,-1.946 -1.574,-3.52 -3.52,-3.52 l -28.152,0 c -1.945,0 -3.52,1.574 -3.52,3.52 l 0,8.21 c 0,1.946 1.575,3.52 3.52,3.52 l 28.152,0 c 1.946,0 3.52,-1.574 3.52,-3.52 z" /></g><text
         id="text114"
         style="font-variant:normal;font-weight:normal;font-size:11.73020458px;font-family:Arial;-inkscape-font-specification:ArialMT;writing-mode:lr-tb;fill:#000000;fill-opacity:1;fill-rule:nonzero;stroke:none"
         transform="matrix(1,0,0,-1,188.85551,55.933376)"><tspan
           id="tspan116"
           y="0"
           x="0 3.2492669 5.8533721 12.375366 15.624633">fib 2</tspan></text>
<g
         transform="matrix(1,0,0,-1,0,120)"
         id="g118"><path
           id="path120"
           style="fill:none;stroke:#000000;stroke-width:0.351906;stroke-linecap:butt;stroke-linejoin:miter;stroke-miterlimit:10;stroke-dasharray:none;stroke-opacity:1"
           d="m 106.16,60 23.461,23.461" /></g><g
         transform="matrix(1,0,0,-1,0,120)"
         id="g122"><path
           id="path124"
           style="fill:none;stroke:#000000;stroke-width:0.351906;stroke-linecap:butt;stroke-linejoin:miter;stroke-miterlimit:10;stroke-dasharray:none;stroke-opacity:1"
           d="M 106.16,60 59.238,83.461" /></g><g
         transform="matrix(1,0,0,-1,0,120)"
         id="g126"><path
           id="path128"
           style="fill:#ffffff;fill-opacity:1;fill-rule:nonzero;stroke:#000000;stroke-width:0.351906;stroke-linecap:butt;stroke-linejoin:miter;stroke-miterlimit:10;stroke-dasharray:none;stroke-opacity:1"
           d="m 147.215,87.566 0,-8.211 c 0,-1.945 -1.574,-3.519 -3.52,-3.519 l -28.152,0 c -1.945,0 -3.52,1.574 -3.52,3.519 l 0,8.211 c 0,1.946 1.575,3.52 3.52,3.52 l 28.152,0 c 1.946,0 3.52,-1.574 3.52,-3.52 z" /></g><text
         id="text130"
         style="font-variant:normal;font-weight:normal;font-size:11.73020458px;font-family:Arial;-inkscape-font-specification:ArialMT;writing-mode:lr-tb;fill:#000000;fill-opacity:1;fill-rule:nonzero;stroke:none"
         transform="matrix(1,0,0,-1,118.47428,32.472966)"><tspan
           id="tspan132"
           y="0"
           x="0 3.2492669 5.8533721 12.375366 15.624633">fib 1</tspan></text>
<g
         transform="matrix(1,0,0,-1,0,120)"
         id="g134"><path
           id="path136"
           style="fill:none;stroke:#000000;stroke-width:0.351906;stroke-linecap:butt;stroke-linejoin:miter;stroke-miterlimit:10;stroke-dasharray:none;stroke-opacity:1"
           d="m 59.238,83.461 23.461,23.461" /></g><g
         transform="matrix(1,0,0,-1,0,120)"
         id="g138"><path
           id="path140"
           style="fill:none;stroke:#000000;stroke-width:0.351906;stroke-linecap:butt;stroke-linejoin:miter;stroke-miterlimit:10;stroke-dasharray:none;stroke-opacity:1"
           d="M 59.238,83.461 35.777,106.922" /></g><g
         transform="matrix(1,0,0,-1,0,120)"
         id="g142"><path
           id="path144"
           style="fill:#ffffff;fill-opacity:1;fill-rule:nonzero;stroke:#000000;stroke-width:0.351906;stroke-linecap:butt;stroke-linejoin:miter;stroke-miterlimit:10;stroke-dasharray:none;stroke-opacity:1"
           d="m 100.293,111.027 0,-8.211 c 0,-1.945 -1.574,-3.519 -3.52,-3.519 l -28.152,0 c -1.945,0 -3.519,1.574 -3.519,3.519 l 0,8.211 c 0,1.946 1.574,3.52 3.519,3.52 l 28.152,0 c 1.946,0 3.52,-1.574 3.52,-3.52 z" /></g><text
         id="text146"
         style="font-variant:normal;font-weight:normal;font-size:11.73020458px;font-family:Arial;-inkscape-font-specification:ArialMT;writing-mode:lr-tb;fill:#000000;fill-opacity:1;fill-rule:nonzero;stroke:none"
         transform="matrix(1,0,0,-1,71.553454,9.012555)"><tspan
           id="tspan148"
           y="0"
           x="0 3.2492669 5.8533721 12.375366 15.624633">fib 0</tspan></text>
<g
         transform="matrix(1,0,0,-1,0,120)"
         id="g150"><path
           id="path152"
           style="fill:#ffffff;fill-opacity:1;fill-rule:nonzero;stroke:#000000;stroke-width:0.351906;stroke-linecap:butt;stroke-linejoin:miter;stroke-miterlimit:10;stroke-dasharray:none;stroke-opacity:1"
           d="m 53.371,111.027 0,-8.211 c 0,-1.945 -1.574,-3.519 -3.519,-3.519 l -28.153,0 c -1.945,0 -3.519,1.574 -3.519,3.519 l 0,8.211 c 0,1.946 1.574,3.52 3.519,3.52 l 28.153,0 c 1.945,0 3.519,-1.574 3.519,-3.52 z" /></g><text
         id="text154"
         style="font-variant:normal;font-weight:normal;font-size:11.73020458px;font-family:Arial;-inkscape-font-specification:ArialMT;writing-mode:lr-tb;fill:#000000;fill-opacity:1;fill-rule:nonzero;stroke:none"
         transform="matrix(1,0,0,-1,24.632633,9.012555)"><tspan
           id="tspan156"
           y="0"
           x="0 3.2492669 5.8533721 12.375366 15.624633">fib 1</tspan></text>
<g
         transform="matrix(1,0,0,-1,0,120)"
         id="g158"><path
           id="path160"
           style="fill:#ffffff;fill-opacity:1;fill-rule:nonzero;stroke:#000000;stroke-width:0.351906;stroke-linecap:butt;stroke-linejoin:miter;stroke-miterlimit:10;stroke-dasharray:none;stroke-opacity:1"
           d="m 76.832,87.566 0,-8.211 c 0,-1.945 -1.574,-3.519 -3.519,-3.519 l -28.153,0 c -1.945,0 -3.519,1.574 -3.519,3.519 l 0,8.211 c 0,1.946 1.574,3.52 3.519,3.52 l 28.153,0 c 1.945,0 3.519,-1.574 3.519,-3.52 z" /></g><text
         id="text162"
         style="font-variant:normal;font-weight:normal;font-size:11.73020458px;font-family:Arial;-inkscape-font-specification:ArialMT;writing-mode:lr-tb;fill:#000000;fill-opacity:1;fill-rule:nonzero;stroke:none"
         transform="matrix(1,0,0,-1,48.093044,32.472966)"><tspan
           id="tspan164"
           y="0"
           x="0 3.2492669 5.8533721 12.375366 15.624633">fib 2</tspan></text>
<g
         transform="matrix(1,0,0,-1,0,120)"
         id="g166"><path
           id="path168"
           style="fill:#ffffff;fill-opacity:1;fill-rule:nonzero;stroke:#000000;stroke-width:0.351906;stroke-linecap:butt;stroke-linejoin:miter;stroke-miterlimit:10;stroke-dasharray:none;stroke-opacity:1"
           d="m 123.754,64.105 0,-8.21 c 0,-1.946 -1.574,-3.52 -3.52,-3.52 l -28.152,0 c -1.945,0 -3.519,1.574 -3.519,3.52 l 0,8.21 c 0,1.946 1.574,3.52 3.519,3.52 l 28.152,0 c 1.946,0 3.52,-1.574 3.52,-3.52 z" /></g><text
         id="text170"
         style="font-variant:normal;font-weight:normal;font-size:11.73020458px;font-family:Arial;-inkscape-font-specification:ArialMT;writing-mode:lr-tb;fill:#000000;fill-opacity:1;fill-rule:nonzero;stroke:none"
         transform="matrix(1,0,0,-1,95.013865,55.933376)"><tspan
           id="tspan172"
           y="0"
           x="0 3.2492669 5.8533721 12.375366 15.624633">fib 3</tspan></text>
<g
         transform="matrix(1,0,0,-1,0,120)"
         id="g174"><path
           id="path176"
           style="fill:#ffffff;fill-opacity:1;fill-rule:nonzero;stroke:#000000;stroke-width:0.351906;stroke-linecap:butt;stroke-linejoin:miter;stroke-miterlimit:10;stroke-dasharray:none;stroke-opacity:1"
           d="m 170.676,40.645 0,-8.211 c 0,-1.946 -1.574,-3.52 -3.52,-3.52 l -28.152,0 c -1.945,0 -3.52,1.574 -3.52,3.52 l 0,8.211 c 0,1.945 1.575,3.519 3.52,3.519 l 28.152,0 c 1.946,0 3.52,-1.574 3.52,-3.519 z" /></g><text
         id="text178"
         style="font-variant:normal;font-weight:normal;font-size:11.73020458px;font-family:Arial;-inkscape-font-specification:ArialMT;writing-mode:lr-tb;fill:#000000;fill-opacity:1;fill-rule:nonzero;stroke:none"
         transform="matrix(1,0,0,-1,141.93469,79.393787)"><tspan
           id="tspan180"
           y="0"
           x="0 3.2492669 5.8533721 12.375366 15.624633">fib 4</tspan></text>
<g
         transform="matrix(1,0,0,-1,0,120)"
         id="g182"><path
           id="path184"
           style="fill:#ffffff;fill-opacity:1;fill-rule:nonzero;stroke:#000000;stroke-width:0.351906;stroke-linecap:butt;stroke-linejoin:miter;stroke-miterlimit:10;stroke-dasharray:none;stroke-opacity:1"
           d="m 264.516,17.184 0,-8.211 c 0,-1.946 -1.575,-3.52 -3.52,-3.52 l -28.152,0 c -1.946,0 -3.52,1.574 -3.52,3.52 l 0,8.211 c 0,1.945 1.574,3.519 3.52,3.519 l 28.152,0 c 1.945,0 3.52,-1.574 3.52,-3.519 z" /></g><text
         id="text186"
         style="font-variant:normal;font-weight:normal;font-size:11.73020458px;font-family:Arial;-inkscape-font-specification:ArialMT;writing-mode:lr-tb;fill:#000000;fill-opacity:1;fill-rule:nonzero;stroke:none"
         transform="matrix(1,0,0,-1,235.77633,102.8542)"><tspan
           id="tspan188"
           y="0"
           x="0 3.2492669 5.8533721 12.375366 15.624633">fib 5</tspan></text>
</g></g></svg>